# File created by Blade
# Date/Time:  Thu Jan 22 19:01:15 2015
# Frame Rate: 120.000 fps
#------------------------------------------------------
:FULLY-SPECIFIED
:DEGREES
1282
root -3.121153 33.107797 1.783419 9.432351 -1.934042 2.878346
RightUpLeg -1.445093 -4.828534 -2.221745
RightLeg 4.878318 -0.000000 -0.000000
RightFoot -14.858280 -3.895117 3.729124
RightToeBase 2.163399 -0.000000 -0.000000
LeftUpLeg -2.641215 2.947553 1.077362
LeftLeg 8.354214 -0.000000 -0.000000
LeftFoot -14.033098 2.669380 -10.777420
LeftToeBase 4.246029 -0.000000 -0.000000
Spine -9.538241 -1.972753 -1.384083
RightShoulder -20.002231 -30.821851 -3.097136
RightArm 21.177366 -56.750338 74.803726
RightForeArm 7.812918 -0.000000 19.169964
RightHand 7.442430 -0.000000 36.440383
RightHandThumb1 -24.326973 -0.000000 -32.862282
LeftShoulder -24.927604 15.389546 9.927569
LeftArm -13.657735 38.429211 -106.221120
LeftForeArm 9.199040 0.000000 14.831608
LeftHand 6.834298 -0.000000 -37.433354
LeftHandThumb1 -26.253704 0.000000 33.147579
Head -4.819366 5.448024 0.021339
1283
root -3.126591 33.125467 1.802566 9.426952 -2.028760 2.863946
RightUpLeg -1.484926 -4.766458 -2.229275
RightLeg 4.994177 -0.000000 -0.000000
RightFoot -14.736341 -3.804270 3.783618
RightToeBase 2.099595 -0.000000 -0.000000
LeftUpLeg -2.695120 2.962960 1.088219
LeftLeg 8.552380 -0.000000 -0.000000
LeftFoot -13.925027 2.720652 -10.806580
LeftToeBase 4.022153 -0.000000 -0.000000
Spine -9.520863 -1.894922 -1.352812
RightShoulder -20.001623 -30.810957 -3.264019
RightArm 21.750519 -56.386237 73.993507
RightForeArm 6.792106 -0.000000 19.199148
RightHand 8.098654 0.000000 35.785510
RightHandThumb1 -24.326973 -0.000000 -32.862282
LeftShoulder -24.921724 15.437251 10.003208
LeftArm -13.535556 38.774449 -105.648824
LeftForeArm 10.031188 -0.000000 15.374057
LeftHand 6.594182 -0.000000 -36.724729
LeftHandThumb1 -26.253704 0.000000 33.147579
Head -4.875399 5.458250 -0.028574
1284
root -3.131337 33.143535 1.821285 9.449094 -2.185281 2.830190
RightUpLeg -1.570552 -4.596892 -2.223591
RightLeg 5.119198 -0.000000 -0.000000
RightFoot -14.574631 -3.767425 3.793146
RightToeBase 1.910233 -0.000000 -0.000000
LeftUpLeg -2.751699 2.988474 1.104776
LeftLeg 8.723866 -0.000000 -0.000000
LeftFoot -13.827833 2.818132 -10.830399
LeftToeBase 3.766702 -0.000000 -0.000000
Spine -9.555922 -1.772305 -1.306055
RightShoulder -19.935126 -30.774643 -3.465628
RightArm 22.209000 -55.974557 73.237612
RightForeArm 5.863252 -0.000000 19.207296
RightHand 8.652862 -0.000000 35.190304
RightHandThumb1 -24.326973 -0.000000 -32.862282
LeftShoulder -24.889775 15.500236 10.117139
LeftArm -13.439439 39.150636 -105.059923
LeftForeArm 10.867050 -0.000000 15.932857
LeftHand 6.433526 -0.000000 -36.043443
LeftHandThumb1 -26.253704 0.000000 33.147579
Head -4.874406 5.494265 -0.062813
1285
root -3.136221 33.158536 1.845726 9.429866 -2.305091 2.799451
RightUpLeg -1.577862 -4.550174 -2.216061
RightLeg 5.202855 -0.000000 -0.000000
RightFoot -14.427247 -3.676731 3.788620
RightToeBase 1.738059 -0.000000 -0.000000
LeftUpLeg -2.742322 3.044205 1.122663
LeftLeg 8.859144 -0.000000 -0.000000
LeftFoot -13.738781 2.884390 -10.834295
LeftToeBase 3.490543 -0.000000 -0.000000
Spine -9.566681 -1.687400 -1.257745
RightShoulder -19.834303 -30.707190 -3.644949
RightArm 22.690702 -55.721335 72.388985
RightForeArm 5.140816 0.000000 19.236223
RightHand 8.748636 -0.000000 34.956036
RightHandThumb1 -24.326973 -0.000000 -32.862282
LeftShoulder -24.846918 15.515383 10.261886
LeftArm -13.394828 39.582170 -104.524402
LeftForeArm 11.670311 -0.000000 16.377066
LeftHand 6.348112 -0.000000 -35.482548
LeftHandThumb1 -26.253704 0.000000 33.147579
Head -4.834259 5.515659 -0.084429
1286
root -3.149407 33.172312 1.874723 9.407501 -2.267796 2.803451
RightUpLeg -1.502956 -4.711761 -2.201506
RightLeg 5.191826 -0.000000 -0.000000
RightFoot -14.270554 -3.556533 3.744882
RightToeBase 1.549880 -0.000000 -0.000000
LeftUpLeg -2.767640 2.967292 1.149650
LeftLeg 9.028919 -0.000000 -0.000000
LeftFoot -13.631145 2.911583 -10.861316
LeftToeBase 3.237441 -0.000000 -0.000000
Spine -9.596134 -1.754504 -1.265885
RightShoulder -19.769902 -30.599174 -3.786483
RightArm 23.091734 -55.486047 71.549860
RightForeArm 4.650671 0.000000 19.238800
RightHand 8.753998 0.000000 34.770240
RightHandThumb1 -24.326973 -0.000000 -32.862282
LeftShoulder -24.716409 15.481183 10.506965
LeftArm -13.397947 39.912486 -103.975480
LeftForeArm 12.266552 0.000000 16.645727
LeftHand 6.519327 -0.000000 -35.243818
LeftHandThumb1 -26.253704 0.000000 33.147579
Head -4.754289 5.503117 0.000199
1287
root -3.160540 33.186127 1.896594 9.405243 -2.267741 2.791440
RightUpLeg -1.478413 -4.736004 -2.175325
RightLeg 5.210252 -0.000000 -0.000000
RightFoot -14.129675 -3.539792 3.742152
RightToeBase 1.400881 -0.000000 -0.000000
LeftUpLeg -2.820985 2.922022 1.181786
LeftLeg 9.208016 -0.000000 -0.000000
LeftFoot -13.560040 2.950461 -10.888616
LeftToeBase 3.093154 -0.000000 -0.000000
Spine -9.630152 -1.784798 -1.246225
RightShoulder -19.670356 -30.461296 -3.961218
RightArm 23.397175 -55.193257 70.801637
RightForeArm 4.160681 0.000000 19.195817
RightHand 8.855319 -0.000000 34.440475
RightHandThumb1 -24.326973 -0.000000 -32.862282
LeftShoulder -24.606002 15.484730 10.691373
LeftArm -13.229616 40.195795 -103.311208
LeftForeArm 12.584159 0.000000 16.695097
LeftHand 6.566989 -0.000000 -35.011019
LeftHandThumb1 -26.253704 0.000000 33.147579
Head -4.692106 5.516637 0.038109
1288
root -3.168105 33.200148 1.915327 9.409444 -2.312193 2.760161
RightUpLeg -1.488209 -4.700522 -2.151688
RightLeg 5.260079 -0.000000 -0.000000
RightFoot -13.989294 -3.490673 3.749057
RightToeBase 1.306983 -0.000000 -0.000000
LeftUpLeg -2.868250 2.909386 1.211942
LeftLeg 9.367069 -0.000000 -0.000000
LeftFoot -13.498092 3.025631 -10.920733
LeftToeBase 2.894665 -0.000000 -0.000000
Spine -9.666540 -1.779112 -1.192526
RightShoulder -19.513386 -30.298618 -4.191101
RightArm 23.601485 -54.825072 70.126877
RightForeArm 3.554480 -0.000000 19.196919
RightHand 8.849731 -0.000000 34.236818
RightHandThumb1 -24.326973 -0.000000 -32.862282
LeftShoulder -24.477729 15.443798 10.880804
LeftArm -13.069972 40.379632 -102.641191
LeftForeArm 12.851951 -0.000000 16.601600
LeftHand 6.601411 -0.000000 -34.776281
LeftHandThumb1 -26.253704 0.000000 33.147579
Head -4.629328 5.532660 0.046882
1289
root -3.175579 33.213311 1.935616 9.406867 -2.377743 2.743644
RightUpLeg -1.495095 -4.655300 -2.139415
RightLeg 5.315082 -0.000000 -0.000000
RightFoot -13.856912 -3.450954 3.781458
RightToeBase 1.093713 -0.000000 -0.000000
LeftUpLeg -2.887271 2.948215 1.227512
LeftLeg 9.490066 -0.000000 -0.000000
LeftFoot -13.414943 3.072197 -10.946475
LeftToeBase 2.774980 -0.000000 -0.000000
Spine -9.708260 -1.767481 -1.160841
RightShoulder -19.376729 -30.220768 -4.372486
RightArm 23.955770 -54.433518 69.346357
RightForeArm 3.077747 -0.000000 19.113434
RightHand 8.859831 -0.000000 34.105764
RightHandThumb1 -24.326973 -0.000000 -32.862282
LeftShoulder -24.318936 15.310253 11.092272
LeftArm -13.003944 40.314246 -101.969586
LeftForeArm 13.079750 -0.000000 16.472117
LeftHand 6.487157 -0.000000 -34.753028
LeftHandThumb1 -26.253704 0.000000 33.147579
Head -4.536175 5.553837 0.073209
1290
root -3.184907 33.225122 1.953379 9.414093 -2.421296 2.718068
RightUpLeg -1.512905 -4.686030 -2.109627
RightLeg 5.372680 -0.000000 -0.000000
RightFoot -13.731560 -3.384115 3.757148
RightToeBase 0.950774 -0.000000 -0.000000
LeftUpLeg -2.925746 3.009882 1.262276
LeftLeg 9.618934 -0.000000 -0.000000
LeftFoot -13.338635 3.064348 -10.951821
LeftToeBase 2.605309 -0.000000 -0.000000
Spine -9.759960 -1.791759 -1.109985
RightShoulder -19.233902 -30.175079 -4.575384
RightArm 24.262924 -53.915482 68.658581
RightForeArm 2.480147 -0.000000 19.045225
RightHand 8.787299 -0.000000 33.696349
RightHandThumb1 -24.326973 -0.000000 -32.862282
LeftShoulder -24.175525 15.213713 11.269457
LeftArm -12.876208 40.180965 -101.214700
LeftForeArm 13.262690 -0.000000 16.341979
LeftHand 6.320367 -0.000000 -34.836734
LeftHandThumb1 -26.253704 0.000000 33.147579
Head -4.436093 5.619435 0.081997
1291
root -3.193068 33.236695 1.969722 9.412004 -2.377259 2.710920
RightUpLeg -1.491971 -4.784335 -2.088033
RightLeg 5.395936 -0.000000 -0.000000
RightFoot -13.619187 -3.328423 3.760486
RightToeBase 0.832818 -0.000000 -0.000000
LeftUpLeg -2.982229 2.999552 1.288085
LeftLeg 9.766659 -0.000000 -0.000000
LeftFoot -13.268636 3.054048 -10.978878
LeftToeBase 2.466182 -0.000000 -0.000000
Spine -9.803416 -1.885518 -1.068480
RightShoulder -19.093916 -30.082646 -4.772853
RightArm 24.461224 -53.418505 68.090366
RightForeArm 2.126866 -0.000000 18.862282
RightHand 8.726862 0.000000 33.674995
RightHandThumb1 -24.326973 -0.000000 -32.862282
LeftShoulder -24.030163 15.148163 11.425093
LeftArm -12.651398 39.977628 -100.401432
LeftForeArm 13.513999 -0.000000 16.149014
LeftHand 6.113737 -0.000000 -34.765920
LeftHandThumb1 -26.253704 0.000000 33.147579
Head -4.330038 5.667391 0.097693
1292
root -3.209107 33.245763 1.986963 9.365223 -2.301939 2.707023
RightUpLeg -1.408787 -4.874429 -2.051549
RightLeg 5.402164 -0.000000 -0.000000
RightFoot -13.526845 -3.318181 3.751922
RightToeBase 0.730397 -0.000000 -0.000000
LeftUpLeg -2.992481 2.982982 1.337560
LeftLeg 9.906872 -0.000000 -0.000000
LeftFoot -13.191960 2.985347 -11.014076
LeftToeBase 2.365711 -0.000000 -0.000000
Spine -9.786823 -2.009160 -1.063221
RightShoulder -18.993218 -29.976914 -4.945637
RightArm 24.621349 -52.905522 67.590526
RightForeArm 1.689008 -0.000000 18.691305
RightHand 8.639160 -0.000000 33.331337
RightHandThumb1 -24.326973 -0.000000 -32.862282
LeftShoulder -23.877456 15.069310 11.624347
LeftArm -12.429792 39.732499 -99.570808
LeftForeArm 13.782152 -0.000000 15.997432
LeftHand 5.881917 -0.000000 -34.672859
LeftHandThumb1 -26.253704 0.000000 33.147579
Head -4.250875 5.720820 0.153866
1293
root -3.215911 33.255290 2.005496 9.329717 -2.344673 2.698956
RightUpLeg -1.374824 -4.865805 -2.047908
RightLeg 5.443280 -0.000000 -0.000000
RightFoot -13.438002 -3.279774 3.771199
RightToeBase 0.604483 -0.000000 -0.000000
LeftUpLeg -2.966995 3.045317 1.348582
LeftLeg 10.000201 -0.000000 -0.000000
LeftFoot -13.109955 2.997500 -11.036506
LeftToeBase 2.144016 -0.000000 -0.000000
Spine -9.789986 -2.013743 -1.033025
RightShoulder -18.910776 -29.869037 -5.156269
RightArm 24.728993 -52.396206 67.143518
RightForeArm 1.242831 -0.000000 18.542612
RightHand 8.475384 -0.000000 32.779450
RightHandThumb1 -24.326973 -0.000000 -32.862282
LeftShoulder -23.775473 14.979115 11.775338
LeftArm -12.213672 39.529435 -98.750919
LeftForeArm 14.000209 -0.000000 15.832533
LeftHand 5.559869 -0.000000 -34.401660
LeftHandThumb1 -26.253704 0.000000 33.147579
Head -4.185973 5.751456 0.174164
